<?xml version="1.0" standalone="no"?>
<!DOCTYPE svg PUBLIC "-//W3C//DTD SVG 20010904//EN"
 "http://www.w3.org/TR/2001/REC-SVG-20010904/DTD/svg10.dtd">
<svg version="1.0" xmlns="http://www.w3.org/2000/svg"
 width="256.000000pt" height="256.000000pt" viewBox="0 0 256.000000 256.000000"
 preserveAspectRatio="xMidYMid meet">

<g transform="translate(0.000000,256.000000) scale(0.100000,-0.100000)"
fill="#000000" stroke="none">
<path d="M1252 2452 l-24 -18 32 -50 c17 -27 40 -80 52 -117 42 -140 7 -276
-111 -430 -59 -76 -59 -76 13 -147 l46 -44 0 -123 c0 -68 -3 -123 -8 -123 -4
0 -71 64 -150 143 -131 132 -142 145 -142 179 0 90 -38 197 -88 251 -35 37
-44 34 -25 -10 8 -21 18 -72 21 -115 7 -106 1 -112 -98 -105 -41 3 -94 13
-118 21 -41 15 -42 15 -31 -5 27 -51 174 -109 276 -109 37 0 47 -9 201 -163
l162 -163 0 -147 c0 -81 -4 -147 -8 -147 -4 0 -27 19 -50 43 -34 35 -42 50
-42 79 0 90 -38 197 -88 251 -35 37 -44 34 -25 -10 8 -21 18 -72 21 -115 7
-106 1 -112 -98 -105 -41 3 -94 13 -117 21 -53 19 -55 7 -5 -33 50 -42 129
-70 218 -78 l74 -6 60 -63 c60 -62 60 -62 60 -123 0 -34 4 -61 8 -61 20 0 32
28 32 73 0 46 3 52 60 111 l60 63 74 6 c145 13 243 73 287 175 11 26 25 84 31
129 14 98 5 116 -50 111 -35 -3 -36 -4 -48 -66 -29 -141 -111 -220 -262 -253
-47 -10 -52 -13 -52 -37 0 -17 -14 -41 -42 -69 -23 -24 -46 -43 -50 -43 -4 0
-8 66 -8 147 l0 147 162 163 c156 157 164 163 203 163 60 0 164 28 212 56 76
44 125 142 137 270 7 76 -5 97 -54 92 -32 -3 -34 -5 -46 -66 -15 -74 -49 -137
-98 -180 -35 -30 -130 -72 -166 -72 -35 0 -50 -12 -50 -39 0 -21 -31 -57 -143
-169 -78 -78 -146 -142 -150 -142 -4 0 -7 54 -7 121 l0 121 63 68 c184 199
204 404 59 612 -32 46 -129 148 -140 148 -4 0 -18 -9 -30 -18z"/>
<path d="M271 958 c55 -242 176 -438 367 -590 l73 -58 89 107 c48 60 99 119
113 132 l26 24 -47 60 c-81 103 -215 213 -337 274 -55 29 -201 79 -252 87
l-41 7 9 -43z"/>
<path d="M2180 971 c-400 -85 -734 -254 -1036 -526 -90 -81 -217 -223 -209
-234 2 -5 40 -18 82 -29 530 -141 1078 156 1242 671 34 105 38 137 19 136 -7
0 -51 -8 -98 -18z"/>
</g>
</svg>
